#N canvas -10 106 762 387 10;
#X obj 128 101 line~;
#X obj 128 40 loadbang;
#X msg 128 71 220;
#X obj 199 40 r freq;
#X obj 128 130 phasor~;
#X msg 199 70 \$1 200;
#X obj 302 102 line~;
#X obj 302 41 loadbang;
#X msg 302 72 220;
#X obj 302 131 phasor~;
#X msg 373 71 \$1 200;
#X obj 373 41 r freq2;
#X obj 307 201 lop~;
#X obj 368 152 r filter2;
#X obj 282 357 dac~;
#X obj 141 202 lop~;
#X obj 210 211 r filter;
#X obj 471 57 r off;
#X obj 474 121 bng 15 250 50 0 empty empty empty 17 7 0 10 -262144
-1 -1;
#X obj 444 208 line~;
#X msg 500 136 0 200;
#X obj 274 277 *~;
#X obj 543 99 bng 15 250 50 0 empty empty empty 17 7 0 10 -262144 -1
-1;
#X obj 540 35 r on;
#X msg 573 131 0.5 200;
#X obj 309 278 *~;
#X obj 575 257 bng 15 250 50 0 empty empty empty 17 7 0 10 -262144
-1 -1;
#X obj 545 344 line~;
#X msg 601 272 0 200;
#X obj 644 235 bng 15 250 50 0 empty empty empty 17 7 0 10 -262144
-1 -1;
#X msg 674 267 0.5 200;
#X obj 572 193 r off2;
#X obj 641 171 r on2;
#X obj 247 103 r d;
#X obj 145 165 *~;
#X obj 252 179 *~;
#X connect 0 0 4 0;
#X connect 1 0 2 0;
#X connect 2 0 0 0;
#X connect 3 0 5 0;
#X connect 4 0 34 0;
#X connect 5 0 0 0;
#X connect 6 0 9 0;
#X connect 7 0 8 0;
#X connect 8 0 6 0;
#X connect 9 0 12 0;
#X connect 9 0 35 0;
#X connect 10 0 6 0;
#X connect 11 0 10 0;
#X connect 12 0 25 0;
#X connect 13 0 12 1;
#X connect 15 0 21 0;
#X connect 16 0 15 1;
#X connect 17 0 18 0;
#X connect 18 0 20 0;
#X connect 19 0 21 1;
#X connect 20 0 19 0;
#X connect 21 0 14 0;
#X connect 21 0 14 1;
#X connect 22 0 24 0;
#X connect 23 0 22 0;
#X connect 24 0 19 0;
#X connect 25 0 14 1;
#X connect 25 0 14 0;
#X connect 26 0 28 0;
#X connect 27 0 25 1;
#X connect 28 0 27 0;
#X connect 29 0 30 0;
#X connect 30 0 27 0;
#X connect 31 0 26 0;
#X connect 32 0 29 0;
#X connect 33 0 35 1;
#X connect 34 0 15 0;
#X connect 35 0 34 1;
