#N canvas 3 22 1588 1036 10;
#X obj 378 906 dac~ 1 2;
#X obj 516 191 receive on;
#X obj 368 75 pow 2;
#X obj 378 122 pow 2;
#X obj 368 169 +;
#X obj 368 190 sqrt;
#X obj 368 211 / 1.41421;
#X obj 368 232 pow 2;
#X obj 368 253 * 108;
#X obj 368 274 + 21;
#X obj 368 295 mtof;
#X obj 353 316 f;
#X msg 454 489 1 \, 0 \$1;
#X obj 454 510 line~;
#X obj 454 531 *~;
#X obj 280 630 osc~;
#X obj 280 657 *~;
#X msg 543 578 0 \, 1 1;
#X obj 543 599 line~;
#X obj 454 615 *~;
#X obj 454 552 *~;
#X obj 454 573 *~ 0.8;
#X obj 454 594 +~;
#X obj 493 552 *~ 0.2;
#X obj 280 547 sig~;
#X obj 330 578 *~;
#X obj 372 427 powtodb;
#X obj 372 448 dbtorms;
#X obj 372 469 - 0.008;
#X obj 372 490 * 5.8;
#X obj 372 511 clip 0 1;
#X obj 357 604 *~;
#X obj 372 553 * 2;
#X obj 175 529 noise~;
#X obj 175 560 *~;
#X obj 130 581 *~;
#X obj 103 453 receive y-axis;
#X obj 103 496 * 8;
#X obj 103 474 pow 2;
#X obj 378 143 t b f;
#X obj 368 54 receive x-axis;
#X obj 378 101 receive y-axis;
#X obj 586 191 receive off;
#X msg 586 212 0;
#X obj 454 384 t b f;
#X msg 454 405 1000;
#X obj 454 426 /;
#X obj 454 447 * 32;
#X obj 372 364 t b f;
#X obj 372 406 /;
#X msg 372 385 1;
#X obj 399 574 + 1;
#X obj 399 553 * -1;
#X obj 399 637 mtof;
#X obj 378 833 hip~;
#X obj 516 238 change;
#X msg 516 212 1;
#X obj 516 259 sel 1;
#X obj 372 532 t f f;
#X obj 353 337 t f f f;
#X obj 516 280 t b b;
#X obj 399 595 pow 3;
#X obj 399 616 * 112;
#X obj 231 414 line~;
#X obj 248 588 *~;
#X obj 231 435 *~;
#X obj 231 456 *~;
#X obj 231 477 *~ 8;
#X msg 231 393 1 \, 0 10;
#X obj 290 698 *~;
#X obj 321 651 + 1;
#X obj 290 719 clip~ -1 1;
#X obj 320 740 *~;
#X obj 320 761 *~;
#X obj 320 782 *~ 0.33;
#X obj 290 809 -~;
#X obj 378 869 *~ 0.5;
#X obj 103 517 sig~;
#X obj 454 468 clip 50 300;
#X obj 938 75 pow 2;
#X obj 948 122 pow 2;
#X obj 938 169 +;
#X obj 938 190 sqrt;
#X obj 938 211 / 1.41421;
#X obj 938 232 pow 2;
#X obj 938 253 * 108;
#X obj 938 274 + 21;
#X obj 938 295 mtof;
#X obj 923 316 f;
#X msg 1024 489 1 \, 0 \$1;
#X obj 1024 510 line~;
#X obj 1024 531 *~;
#X obj 850 630 osc~;
#X obj 850 657 *~;
#X msg 1113 578 0 \, 1 1;
#X obj 1113 599 line~;
#X obj 1024 615 *~;
#X obj 1024 552 *~;
#X obj 1024 573 *~ 0.8;
#X obj 1024 594 +~;
#X obj 1063 552 *~ 0.2;
#X obj 850 547 sig~;
#X obj 900 578 *~;
#X obj 942 427 powtodb;
#X obj 942 448 dbtorms;
#X obj 942 469 - 0.008;
#X obj 942 490 * 5.8;
#X obj 942 511 clip 0 1;
#X obj 927 604 *~;
#X obj 942 553 * 2;
#X obj 745 529 noise~;
#X obj 745 560 *~;
#X obj 700 581 *~;
#X obj 673 496 * 8;
#X obj 673 474 pow 2;
#X obj 948 143 t b f;
#X msg 1186 212 0;
#X obj 1024 384 t b f;
#X msg 1024 405 1000;
#X obj 1024 426 /;
#X obj 1024 447 * 32;
#X obj 942 364 t b f;
#X obj 942 406 /;
#X msg 942 385 1;
#X obj 969 574 + 1;
#X obj 969 553 * -1;
#X obj 969 637 mtof;
#X obj 948 833 hip~;
#X obj 1086 238 change;
#X msg 1086 212 1;
#X obj 1086 259 sel 1;
#X obj 942 532 t f f;
#X obj 923 337 t f f f;
#X obj 1086 280 t b b;
#X obj 969 595 pow 3;
#X obj 969 616 * 112;
#X obj 801 414 line~;
#X obj 818 588 *~;
#X obj 801 435 *~;
#X obj 801 456 *~;
#X obj 801 477 *~ 8;
#X msg 801 393 1 \, 0 10;
#X obj 860 698 *~;
#X obj 891 651 + 1;
#X obj 860 719 clip~ -1 1;
#X obj 890 740 *~;
#X obj 890 761 *~;
#X obj 890 782 *~ 0.33;
#X obj 860 809 -~;
#X obj 673 517 sig~;
#X obj 1024 468 clip 50 300;
#X obj 673 453 receive y-axis.2;
#X obj 938 54 receive x-axis.2;
#X obj 948 101 receive y-axis.2;
#X obj 1086 191 receive on.2;
#X obj 1186 191 receive off.2;
#X connect 1 0 56 0;
#X connect 2 0 4 0;
#X connect 3 0 39 0;
#X connect 4 0 5 0;
#X connect 5 0 6 0;
#X connect 6 0 7 0;
#X connect 7 0 8 0;
#X connect 8 0 9 0;
#X connect 9 0 10 0;
#X connect 10 0 11 1;
#X connect 11 0 59 0;
#X connect 12 0 13 0;
#X connect 13 0 14 0;
#X connect 13 0 14 1;
#X connect 14 0 20 0;
#X connect 14 0 20 1;
#X connect 14 0 23 0;
#X connect 15 0 16 0;
#X connect 16 0 69 0;
#X connect 17 0 18 0;
#X connect 18 0 19 1;
#X connect 19 0 16 1;
#X connect 20 0 25 1;
#X connect 20 0 21 0;
#X connect 21 0 22 0;
#X connect 22 0 19 0;
#X connect 23 0 22 1;
#X connect 24 0 25 0;
#X connect 24 0 34 1;
#X connect 24 0 64 1;
#X connect 24 0 15 0;
#X connect 25 0 31 0;
#X connect 26 0 27 0;
#X connect 27 0 28 0;
#X connect 28 0 29 0;
#X connect 29 0 30 0;
#X connect 30 0 58 0;
#X connect 31 0 15 0;
#X connect 32 0 31 1;
#X connect 32 0 70 0;
#X connect 33 0 34 0;
#X connect 34 0 35 1;
#X connect 35 0 15 0;
#X connect 36 0 38 0;
#X connect 37 0 77 0;
#X connect 38 0 37 0;
#X connect 39 0 4 0;
#X connect 39 1 4 1;
#X connect 40 0 2 0;
#X connect 41 0 3 0;
#X connect 42 0 43 0;
#X connect 43 0 55 0;
#X connect 44 0 45 0;
#X connect 44 1 46 1;
#X connect 45 0 46 0;
#X connect 46 0 47 0;
#X connect 47 0 78 0;
#X connect 48 0 50 0;
#X connect 48 1 49 1;
#X connect 49 0 26 0;
#X connect 50 0 49 0;
#X connect 51 0 61 0;
#X connect 52 0 51 0;
#X connect 53 0 54 1;
#X connect 54 0 76 0;
#X connect 55 0 57 0;
#X connect 56 0 55 0;
#X connect 57 0 60 0;
#X connect 58 0 32 0;
#X connect 58 1 52 0;
#X connect 59 0 24 0;
#X connect 59 1 48 0;
#X connect 59 2 44 0;
#X connect 60 0 11 0;
#X connect 60 0 68 0;
#X connect 60 1 17 0;
#X connect 61 0 62 0;
#X connect 62 0 53 0;
#X connect 63 0 65 0;
#X connect 63 0 65 1;
#X connect 64 0 15 0;
#X connect 65 0 66 0;
#X connect 65 0 66 1;
#X connect 66 0 67 0;
#X connect 67 0 64 0;
#X connect 68 0 63 0;
#X connect 69 0 71 0;
#X connect 70 0 69 1;
#X connect 71 0 72 0;
#X connect 71 0 72 1;
#X connect 71 0 73 1;
#X connect 71 0 75 0;
#X connect 72 0 73 0;
#X connect 73 0 74 0;
#X connect 74 0 75 1;
#X connect 75 0 54 0;
#X connect 76 0 0 0;
#X connect 76 0 0 1;
#X connect 77 0 35 0;
#X connect 78 0 12 0;
#X connect 79 0 81 0;
#X connect 80 0 115 0;
#X connect 81 0 82 0;
#X connect 82 0 83 0;
#X connect 83 0 84 0;
#X connect 84 0 85 0;
#X connect 85 0 86 0;
#X connect 86 0 87 0;
#X connect 87 0 88 1;
#X connect 88 0 132 0;
#X connect 89 0 90 0;
#X connect 90 0 91 0;
#X connect 90 0 91 1;
#X connect 91 0 97 0;
#X connect 91 0 97 1;
#X connect 91 0 100 0;
#X connect 92 0 93 0;
#X connect 93 0 142 0;
#X connect 94 0 95 0;
#X connect 95 0 96 1;
#X connect 96 0 93 1;
#X connect 97 0 102 1;
#X connect 97 0 98 0;
#X connect 98 0 99 0;
#X connect 99 0 96 0;
#X connect 100 0 99 1;
#X connect 101 0 102 0;
#X connect 101 0 111 1;
#X connect 101 0 137 1;
#X connect 101 0 92 0;
#X connect 102 0 108 0;
#X connect 103 0 104 0;
#X connect 104 0 105 0;
#X connect 105 0 106 0;
#X connect 106 0 107 0;
#X connect 107 0 131 0;
#X connect 108 0 92 0;
#X connect 109 0 108 1;
#X connect 109 0 143 0;
#X connect 110 0 111 0;
#X connect 111 0 112 1;
#X connect 112 0 92 0;
#X connect 113 0 149 0;
#X connect 114 0 113 0;
#X connect 115 0 81 0;
#X connect 115 1 81 1;
#X connect 116 0 128 0;
#X connect 117 0 118 0;
#X connect 117 1 119 1;
#X connect 118 0 119 0;
#X connect 119 0 120 0;
#X connect 120 0 150 0;
#X connect 121 0 123 0;
#X connect 121 1 122 1;
#X connect 122 0 103 0;
#X connect 123 0 122 0;
#X connect 124 0 134 0;
#X connect 125 0 124 0;
#X connect 126 0 127 1;
#X connect 127 0 76 0;
#X connect 128 0 130 0;
#X connect 129 0 128 0;
#X connect 130 0 133 0;
#X connect 131 0 109 0;
#X connect 131 1 125 0;
#X connect 132 0 101 0;
#X connect 132 1 121 0;
#X connect 132 2 117 0;
#X connect 133 0 88 0;
#X connect 133 0 141 0;
#X connect 133 1 94 0;
#X connect 134 0 135 0;
#X connect 135 0 126 0;
#X connect 136 0 138 0;
#X connect 136 0 138 1;
#X connect 137 0 92 0;
#X connect 138 0 139 0;
#X connect 138 0 139 1;
#X connect 139 0 140 0;
#X connect 140 0 137 0;
#X connect 141 0 136 0;
#X connect 142 0 144 0;
#X connect 143 0 142 1;
#X connect 144 0 145 0;
#X connect 144 0 145 1;
#X connect 144 0 146 1;
#X connect 144 0 148 0;
#X connect 145 0 146 0;
#X connect 146 0 147 0;
#X connect 147 0 148 1;
#X connect 148 0 127 0;
#X connect 149 0 112 0;
#X connect 150 0 89 0;
#X connect 151 0 114 0;
#X connect 152 0 79 0;
#X connect 153 0 80 0;
#X connect 154 0 129 0;
#X connect 155 0 116 0;
